<svg width="200" height="200" viewBox="0 0 200 200" xmlns="http://www.w3.org/2000/svg">
  <rect width="200" height="200" fill="white"/>
  <path d="M60 40 C70 20 130 20 140 40 C150 60 130 80 110 70 C90 60 70 60 60 40 Z" fill="#FBC4AB"/>
  <path d="M80 100 C90 80 130 80 140 100 C150 120 130 140 110 130 C90 120 80 120 80 100 Z" fill="#B8E0D2"/>
  <path d="M50 120 C60 100 100 100 110 120 C120 140 100 160 80 150 C60 140 50 140 50 120 Z" fill="#D5ECC2"/>
  <path d="M40 80 C50 60 90 60 100 80 C110 100 90 120 70 110 C50 100 40 100 40 80 Z" fill="#C9C9FF"/>
</svg>
